<svg width="13" height="17" viewBox="0 0 13 17" fill="none" xmlns="http://www.w3.org/2000/svg">
<g id="Component 1">
<path id="Vector" d="M10.5604 14.6957H2.41959C1.21717 14.6957 0.23999 13.7263 0.23999 12.5362V4.47042C0.23999 3.28029 1.21717 2.31091 2.41959 2.31091H5.59696V3.75059H2.41959C2.01878 3.75059 1.69306 4.07331 1.69306 4.47042V12.5362C1.69306 12.9333 2.01878 13.256 2.41959 13.256H10.5604C10.9612 13.256 11.2869 12.9333 11.2869 12.5362V9.52248H12.74V12.5362C12.74 13.7275 11.7628 14.6957 10.5604 14.6957Z" fill="#6F777C"/>
<path id="Vector_2" d="M11.9733 4.34567L12.0132 3.21912L7.44941 3.38468L7.49663 4.71397L9.61207 4.6372L3.67749 10.5627L4.73944 11.6244L10.5905 5.78293L10.519 7.73729L11.8473 7.78528L11.9709 4.40205L11.9999 4.37326L11.9733 4.34567Z" fill="#6F777C"/>
</g>
</svg>
