<svg width="30" height="30" viewBox="0 0 30 30" fill="none" xmlns="http://www.w3.org/2000/svg">
<g id="Group" opacity="0.75">
<path id="Vector" d="M29.5394 18.1509C29.6121 17.9813 29.6848 17.7994 29.7818 17.6298C29.6606 17.7994 29.6242 17.7751 29.6121 17.6661V17.6298C29.6121 17.5934 29.6121 17.5449 29.6242 17.4843C29.6242 17.4964 29.6242 17.4964 29.6121 17.5085C29.6121 17.4479 29.6121 17.3994 29.6363 17.3388C29.6363 17.3873 29.6242 17.4358 29.6242 17.4843C29.6363 17.4601 29.6485 17.3994 29.6485 17.3388C29.6727 17.2903 29.7212 17.254 29.7939 17.2176C29.7212 17.1449 29.7212 16.9509 29.697 16.7327C29.7091 16.7085 29.7212 16.6842 29.7333 16.66C29.7091 16.6479 29.6969 16.6236 29.6727 16.5994C29.6606 16.5267 29.6364 16.4419 29.6121 16.3813C29.5879 16.1025 29.6727 15.7389 29.503 15.654C29.503 15.6176 29.4909 15.5934 29.4788 15.557L29.7091 15.4964L30 15.4237L29.7454 15.2419C29.7576 15.2904 29.7576 15.3873 29.7333 15.4479C29.6242 15.3025 29.5151 15.157 29.3818 15.0237C29.5394 14.7449 29.6242 14.6116 29.8545 14.8904C29.503 14.2237 29.7091 14.3449 29.3576 13.7994L29.5394 13.8116C29.503 13.6055 29.2242 13.3146 29.3576 13.1813C29.3939 13.1086 29.4182 13.0116 29.4303 12.9025L29.503 12.9268L29.4303 12.8298C29.4303 12.6359 29.4061 12.3934 29.3455 12.1146L29.4182 12.1389C29.3818 12.0298 29.3333 11.9086 29.2727 11.7874C29.1273 11.1329 28.9091 10.3693 28.8243 9.75109C28.6182 9.95714 28.6303 9.7995 28.6303 9.6177C28.6303 9.43587 28.6182 9.2056 28.4242 9.26623C28.4727 9.2056 28.4848 9.12074 28.5333 9.08437L28.5697 9.10865L28.5333 9.0723C28.5576 9.04808 28.606 9.04802 28.6788 9.09649C28.303 8.59953 28.4849 8.15105 27.9515 7.95712C28.0243 7.83592 28.1697 7.98138 28.2061 7.89652C28.1576 7.8723 28.0121 7.78745 28.0485 7.6905C28.0727 7.59352 28.1818 7.71476 28.2788 7.77536C27.9394 7.22989 27.5758 7.37535 27.2485 7.53292C27.2364 7.35109 27.2243 7.22989 27.1515 7.15717C27.1273 7.13291 27.0909 7.10869 27.0546 7.09657C27.0546 7.08447 27.0546 7.07231 27.0546 7.06019C27.0546 7.07231 27.0425 7.08447 27.0425 7.09657C26.9819 7.07235 26.9091 7.04809 26.8 7.02387C26.8364 6.87842 26.8243 6.66021 27.0909 6.93899C26.9818 6.76931 26.4485 5.76324 26.2061 5.94507C26.2182 5.84809 26.0243 5.71473 25.9637 5.69051C25.6728 5.33898 25.6485 5.27841 25.3334 4.96328C25.4425 4.99963 25.5031 4.95116 25.6606 5.03598C25.1758 4.5754 25.8667 5.09661 25.6243 4.67238C25.7334 4.7451 25.8183 4.82996 25.9031 4.90268C25.8425 4.79358 25.7819 4.68447 25.7334 4.5754V4.59965C25.7334 4.63603 25.7334 4.66022 25.7212 4.62384L25.7091 4.61171C25.6849 4.62384 25.6607 4.62387 25.6364 4.63597C25.4304 4.68447 25.1152 4.52689 25.1273 4.8057C25.2122 4.87843 25.2728 4.92687 25.3213 4.939L25.3698 5.04814C25.0061 5.14508 25.0425 4.82989 24.7395 4.61171L24.7637 4.59965C24.6304 4.38147 24.5334 4.27237 24.4728 4.21177C24.5334 4.04209 24.5819 3.83601 24.5698 3.65418C24.5092 3.71478 24.4728 3.75112 24.1334 3.62992C24.1576 3.72687 24.3394 3.99359 24.3637 4.13904C24.3637 4.12691 24.3516 4.12691 24.3516 4.12691C24.2667 4.09057 24.2061 4.02993 23.9395 3.6663L23.9031 3.75116C23.9031 3.73906 23.9031 3.73903 23.891 3.73903C23.891 3.86023 23.7455 3.84813 23.5758 3.83601C23.4546 3.70268 23.3334 3.39965 23.1516 3.20569C23.3334 3.03602 23.1031 2.96329 22.8486 2.91482C22.8001 3.01177 22.8486 3.06024 22.9334 3.10871L22.9819 3.2421C22.8243 3.22998 22.7395 2.92695 22.6668 2.63605C22.994 2.6603 23.3819 2.69661 23.6122 2.97542C23.6122 2.63601 23.5153 2.93901 23.4425 2.50267C23.4425 2.95113 22.4971 1.90879 22.6425 2.47847C22.6183 2.29666 22.5456 2.18756 22.4607 2.09059C22.485 2.07847 22.594 2.1148 22.6668 2.12692C22.4365 1.84814 22.3637 1.87242 22.3152 1.94515C22.2304 1.8603 22.1335 1.76327 22.0365 1.58146C22.0244 1.61782 22.0365 1.67846 22.0122 1.69058C22.0001 1.66634 21.9638 1.6421 21.9274 1.61786C21.9032 1.58149 21.8426 1.55725 21.7698 1.54513C21.7456 1.53301 21.7213 1.53299 21.6728 1.52087C21.6728 1.52087 21.685 1.52088 21.685 1.533C21.6486 1.52088 21.6001 1.52087 21.5395 1.52087C21.1638 1.4845 20.6304 1.46028 20.4001 1.15725C20.4244 1.21786 20.4486 1.27848 20.4486 1.32696C20.3759 1.19363 20.3032 1.08456 20.6304 1.12093L20.1941 0.951215C19.9759 0.757279 19.6365 0.575479 19.3941 0.587599C19.1881 0.490633 18.8001 0.660303 19.0183 0.563334L18.2911 0.514876L18.3032 0.466346C17.9638 0.357256 17.5759 0.39361 17.2002 0.38149C16.8244 0.369367 16.4487 0.296666 16.0487 0.10273C15.8063 0.139093 15.5517 0.187589 15.1518 0.114862L15.079 -0.0669818C14.776 -0.0306186 14.1336 -0.200278 14.0124 -0.0305839C13.8306 -0.236642 13.4427 -0.285131 13.0427 -0.188163C12.6427 -0.115436 12.2184 0.0300066 11.9397 0.0300066L11.9518 0.260309C11.5881 0.308792 11.2488 0.478456 10.8245 0.684515L10.8851 0.829961C10.7276 0.866325 10.5821 0.926969 10.4488 1.02394C10.4367 1.03606 10.4246 1.03607 10.4124 1.03607C10.4124 1.01183 10.4124 0.975433 10.4609 0.92695C10.3761 0.987556 10.2791 1.03603 10.1821 1.0724C9.90335 1.10876 9.58819 1.15728 9.29728 1.26637C9.30941 1.18153 9.46696 1.14512 9.58819 1.14512C9.37001 1.10876 9.17608 1.13298 8.99425 1.20571C8.86093 1.26631 8.73973 1.35118 8.63065 1.44814C8.43669 1.52087 8.27912 1.62999 8.19426 1.78757C8.00034 1.93302 7.78213 2.05422 7.53973 2.07846C7.43062 2.22391 7.32158 2.27238 7.18825 2.2845C7.20035 2.27238 7.21247 2.2603 7.21247 2.2603C7.20035 2.27243 7.17613 2.27238 7.15187 2.2845C7.06702 2.29662 6.98217 2.29664 6.89732 2.30876C6.98217 2.32089 7.06699 2.32087 7.12762 2.29663C7.01852 2.35724 6.86097 2.4906 6.72764 2.63605L6.53368 2.50267C6.52156 2.51479 6.52159 2.51481 6.50946 2.52693C6.30341 2.55118 6.4367 2.68451 6.60641 2.76937C6.54581 2.84209 6.49734 2.93901 6.47312 3.02386C6.14583 2.82993 6.14583 3.41181 5.75798 3.2421C5.75798 3.35121 5.58824 3.52082 5.43066 3.71478C5.40644 3.75112 5.37006 3.79966 5.34581 3.84817C4.89733 4.18755 4.461 4.52692 4.06099 4.90268V4.86627C4.06099 4.89052 4.04889 4.90262 4.04889 4.91475C3.74586 5.19352 3.44283 5.49662 3.17618 5.81175C3.28528 5.836 3.39436 5.84812 3.51556 5.88447C3.50346 5.90872 3.49134 5.92085 3.47921 5.9572C3.39436 6.05418 3.30951 6.17531 3.21256 6.28442C3.07921 6.34502 2.89739 6.27229 3.12769 5.98139C2.87315 6.01777 2.88526 6.52685 2.93375 6.6117C2.89738 6.63596 2.87316 6.67233 2.8368 6.70871C2.48529 6.96324 2.78829 6.1875 2.66708 6.34508L2.5095 6.59958L2.58223 6.56326C2.55799 6.84204 2.63073 6.91473 2.41255 7.27834C2.41255 7.29046 2.41254 7.29049 2.40042 7.29049C2.20648 7.48442 2.158 7.30262 2.09739 7.38747C2.08527 7.37535 2.0489 7.39957 2.01254 7.5208L1.66106 8.06626L1.98831 7.98138C1.72165 8.41773 1.45497 8.86625 1.17619 9.22988C1.46709 9.22988 1.34591 9.3268 1.21258 9.46012C1.07925 9.59345 0.93378 9.75103 1.1156 9.84801C0.982263 9.86013 0.848943 9.99346 0.824703 9.78741C0.739854 10.4056 0.303473 10.5874 0.533773 11.1086C0.40044 11.145 0.388355 10.9389 0.303508 10.9753C0.315628 11.0237 0.351966 11.1935 0.279242 11.2298C0.194395 11.2662 0.20652 11.1207 0.170157 11.0116C0.0368259 11.6056 0.351976 11.7631 0.667124 11.8843C0.655001 11.9086 0.655017 11.9329 0.642894 11.9571C0.655017 11.945 0.679254 11.9207 0.715617 11.9086C0.594407 12.0298 0.533798 12.1389 0.521678 12.248C0.521678 12.2601 0.533773 12.2722 0.533773 12.2843C0.48529 12.345 0.44893 12.4177 0.42469 12.5146C0.412566 12.5146 0.412592 12.5268 0.412592 12.5389V12.4419C0.400472 12.5025 0.364099 12.648 0.327736 12.8055C0.279252 12.951 0.206536 13.0844 0.0732051 13.1692C0.194415 13.1086 0.170157 13.3873 0.170157 13.6419C0.170157 13.8601 0.194418 14.054 0.303508 14.0419C0.315628 14.0783 0.315615 14.1025 0.327736 14.1146C0.25501 14.1267 0.145907 14.054 0.0489392 14.2116C0.158028 14.6358 0.0610605 15.0965 0.0489392 15.5813C0.0246973 16.0661 -0.0601262 16.5995 0.0732051 17.1085C0.145931 17.1085 0.242886 16.9267 0.400459 17.1327L0.0853008 17.7267C0.158027 17.9206 0.545912 17.8357 0.364099 18.2479C0.412582 18.1873 0.497422 18.0903 0.545905 18.2115C0.545905 18.3206 0.558013 18.4176 0.570136 18.5267C0.448923 18.7327 0.303482 18.9509 0.315603 19.0963C0.291361 19.1691 0.230774 19.0236 0.18229 18.9388C0.109564 19.7388 0.473198 18.963 0.679257 19.4721C0.570167 19.6054 0.267118 19.46 0.351966 19.8236C0.303481 20.0418 1.16407 20.6721 1.10346 21.2418C1.16407 21.0963 1.22469 20.9509 1.41862 21.1448C1.61256 21.4599 1.455 22.2963 1.96408 22.4175C1.96408 22.466 1.95196 22.5024 1.92772 22.5145C2.01257 22.5993 2.13376 22.7206 2.25497 22.8539C2.30346 22.9872 2.3762 23.1084 2.42469 23.2538C2.50953 23.5084 2.6186 23.7508 2.70345 24.0175C2.66708 23.7023 2.78831 23.8478 2.90952 24.0054C2.8974 23.9569 2.90952 23.9327 2.94588 23.9084C3.03073 24.0054 3.13982 24.1024 3.24891 24.1993C3.24891 24.1993 3.24887 24.1993 3.261 24.1993C3.30947 24.3569 3.35798 24.5145 3.41858 24.672C3.51556 24.6478 3.62463 24.7084 3.72161 24.7933C3.70948 24.8296 3.68523 24.866 3.64888 24.9024L4.25495 25.5084L4.12162 25.7144L4.32764 25.6902C4.6428 26.0174 4.89736 26.0296 5.12766 26.0417C5.18826 26.163 5.07916 26.1508 5.04278 26.1629C5.34581 26.5629 5.52764 26.7326 5.7822 26.8296C5.75795 26.8053 5.74582 26.7569 5.72157 26.7205C5.75792 26.7084 5.79433 26.6963 5.83067 26.7084C5.85493 26.7084 5.85489 26.7569 5.87915 26.7932C5.85489 26.8054 5.83067 26.8174 5.80642 26.8296C5.93975 26.878 6.09733 26.9144 6.30338 26.9508C6.33976 26.975 6.38823 27.0114 6.42461 27.0356L6.41248 27.0963L6.33976 27.0841L6.26703 27.1205L6.41248 27.1326L6.40039 27.1932C6.49734 27.1932 6.65492 27.3871 6.88522 27.6053C6.89735 27.6053 6.89732 27.6053 6.89732 27.6053C6.93366 27.6417 6.95795 27.666 7.00642 27.7023C7.29733 27.9569 7.66093 28.272 8.10941 28.3326C8.08516 28.3447 8.06094 28.3811 7.97608 28.3811C8.37609 28.4417 8.7276 28.7326 9.09123 28.975C8.89731 28.9871 8.99428 29.1447 9.39426 29.278C9.29732 29.2053 9.18821 29.1084 9.23668 29.072C9.26094 29.0841 9.28516 29.1083 9.32151 29.1204C9.49121 29.2174 9.64882 29.3022 9.80637 29.3386C9.79427 29.3507 9.78211 29.3508 9.75789 29.375C9.81849 29.3023 9.72152 29.3629 9.56394 29.375L9.91547 29.3871C9.91547 29.3749 9.91547 29.3629 9.91547 29.3508C10.1094 29.3871 10.2912 29.3629 10.4367 29.181C10.57 29.1931 10.7155 29.1931 10.8609 29.1689C10.9821 29.2053 11.1033 29.2416 11.2245 29.2659C11.2124 29.3386 11.2245 29.3992 11.0669 29.4598C11.2124 29.4355 11.4063 29.3992 11.4185 29.3143C11.6003 29.3628 11.7942 29.3993 11.976 29.4477C12.0609 29.4841 12.1215 29.5326 12.0972 29.5932C12.9942 29.7508 13.9033 29.9083 14.8002 29.9931C14.7275 30.0295 14.6427 30.1022 14.873 30.1628C14.7396 30.1871 14.6184 30.1992 14.5093 30.1992C14.6305 30.2235 14.7396 30.2598 14.8608 30.2962L14.8487 30.2841C14.8366 30.272 14.8245 30.2598 14.8245 30.2598C14.8245 30.2598 14.8245 30.2598 14.8487 30.2598H14.8608C14.873 30.2356 14.873 30.2113 14.8851 30.1871C14.9215 30.1265 14.9942 30.0659 15.0548 30.0174C15.4548 30.0416 15.8547 30.0538 16.2547 30.0295C16.279 30.0538 16.3032 30.0901 16.3275 30.1144C16.3275 30.078 16.3275 30.0538 16.3517 30.0174C16.4487 30.0174 16.5335 30.0053 16.6305 30.0053C16.6062 29.9689 16.5699 29.9204 16.5457 29.8719C16.582 29.8598 16.6184 29.8356 16.6547 29.8235C16.6305 29.8114 16.5578 29.7871 16.4729 29.7628C16.4608 29.7507 16.4487 29.7265 16.4366 29.7022C16.6063 29.7022 16.7638 29.678 16.9335 29.6538C17.0668 29.7023 17.1396 29.884 16.7881 29.9204C17.0062 30.078 17.3699 29.678 17.3699 29.6053C18.0971 29.6174 17.1639 30.0174 17.382 29.9931L17.5517 29.9568C17.7093 30.0901 17.6244 29.8962 17.9517 30.1265C17.6487 29.8356 18.7638 29.872 18.6305 29.6659C18.6305 29.6659 18.6426 29.6538 18.6547 29.6538C18.9699 29.7992 19.1517 29.6416 19.588 29.7871C19.5517 29.7022 19.3941 29.6659 19.7577 29.5932C19.7577 29.5689 19.7941 29.5204 19.8062 29.4962C19.8183 29.4962 19.8183 29.4962 19.8304 29.4962H19.8062C19.7092 29.4841 19.6365 29.472 19.588 29.4356C19.6729 29.2053 20.1213 29.0356 20.3153 28.878C20.3638 28.8659 20.4123 28.8538 20.4607 28.8295C20.485 28.8538 20.3638 28.9629 20.4729 28.9993C20.5456 28.9266 20.6062 28.8417 20.6789 28.7447C20.7517 28.8659 21.0668 28.8538 21.0668 28.9507C21.0668 28.9871 21.0304 29.0477 20.9092 29.1326L21.3334 28.9507C21.6243 28.9386 22.0001 28.8295 22.1577 28.6477C22.3759 28.575 22.5213 28.175 22.4365 28.4053L22.994 27.9326L23.0183 27.9689C23.3456 27.8114 23.5758 27.5084 23.8667 27.2539C24.1455 26.9993 24.4728 26.7811 24.8849 26.6357C25.0304 26.4417 25.1637 26.2235 25.5031 26.0053L25.6849 26.0781C25.8667 25.8356 26.4485 25.5084 26.4122 25.2902C26.6909 25.3145 26.994 25.072 27.2121 24.7084C27.4303 24.369 27.6364 23.969 27.8303 23.7751L27.6606 23.6296C27.7212 23.5447 27.7818 23.4478 27.8303 23.3508L27.8061 23.3387L27.8424 23.3266V23.3145C27.9636 23.0842 28.0485 22.8296 28.1576 22.5266L27.9636 22.4539C28.0364 22.0539 28.5576 21.6175 28.8121 21.0358C28.8606 21.0964 28.7757 21.2418 28.6909 21.3266C28.8727 21.2054 28.9939 21.0357 29.0667 20.8539C29.1273 20.6721 29.1515 20.466 29.1636 20.2721C29.1879 19.8721 29.2243 19.4964 29.4667 19.2055C29.4424 19.0236 29.4909 18.9145 29.5636 18.8054V18.8539C29.5636 18.8418 29.5758 18.8176 29.5758 18.7933C29.6242 18.7327 29.6848 18.66 29.7333 18.5873C29.6727 18.6358 29.6121 18.6964 29.5879 18.7449C29.6121 18.6236 29.6363 18.4176 29.6242 18.2237L29.8545 18.1873V18.1509C29.903 18.0903 29.7212 18.0903 29.5394 18.1509ZM26.9091 7.35106C26.897 7.35106 26.897 7.35106 26.9091 7.35106V7.35106ZM19.8062 0.92695C19.8062 0.93907 19.7941 0.939082 19.7941 0.939082C19.7335 0.890599 19.6971 0.866337 19.6729 0.842094C19.6971 0.854214 19.7456 0.878467 19.8062 0.92695ZM17.8062 0.854227C17.782 0.866347 17.7456 0.878505 17.7335 0.890625C17.7335 0.878505 17.7214 0.866347 17.7214 0.854227C17.7456 0.854227 17.782 0.854227 17.8062 0.854227ZM2.19438 7.43595C2.13378 7.66622 2.12164 7.58137 2.09739 7.49651L2.19438 7.43595ZM17.479 30.0417C17.685 29.8598 17.6971 29.7507 18.1093 29.6538C18.1456 29.6417 18.182 29.6538 18.2062 29.6538C18.0123 29.8356 17.7578 30.0295 17.479 30.0417ZM19.0668 29.3629C19.0547 29.3629 19.0305 29.375 19.0183 29.375C19.0668 29.3508 19.1153 29.3386 19.1638 29.3143C19.1274 29.3265 19.1032 29.3508 19.0668 29.3629ZM19.3456 29.2053C19.3214 29.2174 19.2971 29.2295 19.2729 29.2537C19.2729 29.2416 19.2729 29.2296 19.2608 29.2174C19.2971 29.2053 19.3456 29.1931 19.382 29.181C19.382 29.181 19.3577 29.1932 19.3456 29.2053ZM22.0486 28.0659C21.9516 28.2841 21.8425 28.4902 21.3819 28.5387C21.3577 28.5265 21.3334 28.5265 21.3092 28.5144C21.4668 28.4417 21.6001 28.3932 21.6607 28.3932C21.782 28.2478 21.9274 28.1144 22.0728 28.0053C22.0607 28.0175 22.0607 28.0417 22.0486 28.0659ZM26.7637 21.969C26.9697 21.9569 27.1758 22.0054 27.3939 22.1509C27.0909 22.3327 26.8243 22.3569 26.5576 22.3084C24.097 26.2235 19.7456 28.8295 14.8002 28.8295C7.15187 28.8295 0.933786 22.6115 0.933786 14.9631C0.933786 13.4116 1.20043 11.9086 1.67315 10.5147C1.57618 10.539 1.50348 10.5511 1.43075 10.5632C1.41863 10.5268 1.4065 10.4904 1.38226 10.454C1.44286 10.4298 1.51561 10.3693 1.58833 10.3571C1.6247 10.3571 1.67316 10.3571 1.72165 10.3692C3.62463 4.96322 8.76395 1.08453 14.8123 1.08453C22.4607 1.08453 28.6788 7.30262 28.6788 14.951C28.6788 17.5206 27.9758 19.9206 26.7637 21.969ZM28.6667 17.9448C28.6061 17.9327 28.5455 17.8963 28.4849 17.8721C28.5455 17.8479 28.5939 17.8115 28.6545 17.7994C28.6788 17.7994 28.703 17.8479 28.7273 17.8721C28.7151 17.8963 28.6909 17.9448 28.6667 17.9448Z" fill="white"/>
<path id="Vector_2" d="M13.8313 2.24847L13.8187 2.26112H13.8313V2.24847Z" fill="white"/>
<path id="Vector_3" d="M10.3154 2.69761L10.2548 2.68549L10.279 2.75821L10.3154 2.69761Z" fill="white"/>
<path id="Vector_4" d="M14.8004 2.2121C14.4731 2.2121 14.1458 2.23639 13.8307 2.26063L13.8428 2.33335L13.7701 2.32122L13.8186 2.26063C7.24897 2.76972 2.04904 8.26051 2.04904 14.9634C2.04904 21.9936 7.77018 27.7148 14.8004 27.7148C15.1034 27.7148 15.4064 27.7026 15.7094 27.6784H15.2367C15.1761 27.4602 15.1155 27.242 15.0549 26.9996H15.7215C15.9276 27.2299 15.7458 27.4602 15.7337 27.6784C22.3396 27.2056 27.5638 21.6785 27.5638 14.9634C27.5517 7.93323 21.8306 2.2121 14.8004 2.2121ZM3.26115 15.7028C2.66721 15.2664 2.80054 14.8059 2.69145 14.4301C2.92175 14.1756 3.06721 14.4786 3.26115 14.4786C3.41873 14.4907 3.57631 14.5271 3.85509 14.5755C3.33388 14.818 2.78842 14.9028 3.26115 15.7028ZM4.82475 22.3694C4.78841 22.3088 4.71568 22.2239 4.72781 22.1755C4.73993 22.127 4.83688 22.1027 4.90961 22.0663C4.95811 22.1027 5.00658 22.1511 5.06718 22.1875C4.99449 22.2481 4.90961 22.3088 4.82475 22.3694ZM5.17629 19.6179C5.13991 19.4724 5.06718 19.327 5.06718 19.1815C5.06718 18.9876 5.18838 18.8664 5.39447 18.8785C5.57627 18.8906 5.73382 18.9876 5.68534 19.2058C5.63687 19.4118 5.52779 19.5936 5.17629 19.6179ZM5.61262 6.38172L5.62474 6.32112L5.70963 6.35747L5.61262 6.38172ZM23.2244 15.0119C23.1638 15.0361 23.0912 15.0483 23.0184 15.0483C23.0063 15.0483 22.9942 14.9998 22.982 14.9756C23.0548 14.9634 23.1154 14.9391 23.1881 14.927C23.1881 14.927 23.2124 14.9877 23.2244 15.0119ZM22.8245 8.30902C22.8851 8.33324 22.9457 8.36962 23.0063 8.39387C22.982 8.43022 22.9578 8.45441 22.9457 8.49079C22.8851 8.45441 22.8245 8.41809 22.7518 8.38171C22.776 8.35749 22.8002 8.30902 22.8245 8.30902ZM22.8972 9.36353C22.8608 9.33928 22.679 9.38772 22.6911 9.2544C22.6426 9.2544 22.8487 9.13323 22.8972 9.36353ZM22.1699 10.0059L22.1821 10.0423C22.17 10.0302 22.1699 10.0302 22.1699 10.0302C22.1699 10.0302 22.1699 10.018 22.1699 10.0059ZM19.5033 4.89088C19.6124 4.7333 19.77 4.6242 19.9154 4.49084C19.9882 4.53935 20.0487 4.59998 20.1215 4.66058C20.0366 4.84238 19.976 5.03634 19.8548 5.19388C19.8185 5.25451 19.6124 5.25451 19.5397 5.20604C19.4791 5.14541 19.4548 4.95148 19.5033 4.89088ZM19.9154 10.8787C19.9397 10.8665 20.0003 10.9514 20.0851 11.0241C19.9881 11.0968 19.8912 11.1574 19.8064 11.2301C19.77 11.1695 19.6851 11.0847 19.6973 11.0604C19.7579 10.9877 19.8306 10.9271 19.9154 10.8787ZM19.5518 7.60598C19.6003 7.5696 19.6488 7.49684 19.6973 7.49684C19.7458 7.50897 19.8063 7.5696 19.8548 7.60598C19.8306 7.6302 19.7942 7.69083 19.7821 7.69083C19.7094 7.66658 19.6366 7.64232 19.5518 7.60598ZM17.7215 12.2119C17.8185 12.2604 17.8912 12.3574 17.9761 12.4422C17.8912 12.5028 17.7943 12.5877 17.7821 12.5756C17.6852 12.4907 17.6003 12.3816 17.5155 12.2846C17.5761 12.2604 17.6731 12.1877 17.7215 12.2119ZM13.3216 8.78166C13.4065 8.86651 13.5034 8.93924 13.5883 9.02409C13.5519 9.09682 13.5156 9.15745 13.4792 9.20596C13.3943 9.13323 13.2974 9.0726 13.2368 8.97565C13.2125 8.9514 13.2853 8.85439 13.3216 8.78166ZM7.24897 19.9451C7.16412 19.8967 7.10352 19.8118 7.0308 19.7391C7.07927 19.7027 7.1399 19.6664 7.22475 19.5937C7.28535 19.6664 7.34595 19.7512 7.40655 19.8361C7.34595 19.8725 7.2611 19.9573 7.24897 19.9451ZM7.05502 13.6301C7.09139 13.5816 7.12774 13.5453 7.16412 13.4967C7.21259 13.5331 7.27319 13.5816 7.3217 13.6301C7.2611 13.6543 7.2005 13.6786 7.13987 13.6907C7.12777 13.6907 7.09139 13.6543 7.05502 13.6301ZM7.66108 6.57571C7.30957 6.46661 6.95807 6.33328 6.50962 6.1757C7.05505 5.84842 7.43081 5.96962 7.79444 6.22415C7.84291 6.26052 7.86713 6.38172 7.85501 6.44232C7.83078 6.51505 7.70955 6.59994 7.66108 6.57571ZM8.65503 15.1089C8.52167 15.024 8.38837 14.9391 8.25505 14.8543C8.33987 14.7816 8.43685 14.6361 8.5217 14.6361C8.60655 14.6361 8.69137 14.7816 8.7641 14.8543C8.72772 14.9634 8.69137 15.0362 8.65503 15.1089ZM9.75802 26.0905C9.72167 26.0784 9.68532 26.0662 9.64894 26.0541C9.68532 26.0178 9.72167 25.9693 9.77017 25.9451C9.78227 25.9451 9.81862 25.9935 9.855 26.0178C9.83074 26.0541 9.79439 26.0663 9.75802 26.0905ZM10.4489 5.61811L10.4368 5.69081L10.352 5.64237L10.4489 5.61811ZM10.4368 17.1573L10.4004 17.0482L10.4853 17.0603L10.4368 17.1573ZM10.6429 9.2544C10.6308 9.20592 10.6307 9.15745 10.6186 9.1211C10.655 9.1332 10.6914 9.1211 10.7156 9.14536C10.7277 9.15748 10.7277 9.19386 10.7277 9.23021C10.7035 9.23021 10.6671 9.24227 10.6429 9.2544ZM10.8974 6.44232C10.8368 6.40595 10.7883 6.36963 10.7277 6.32112C10.7519 6.24843 10.7762 6.1757 10.7883 6.10298C10.8489 6.13932 10.9459 6.17567 10.9701 6.23627C10.9822 6.28478 10.9216 6.3696 10.8974 6.44232ZM18.2791 18.7573C18.2549 18.6967 18.1821 18.5876 18.1942 18.5633C18.267 18.4906 18.3639 18.4422 18.4609 18.3816C18.4973 18.4543 18.57 18.5512 18.5579 18.5633C18.4609 18.6482 18.3761 18.6967 18.2791 18.7573ZM19.7821 20.3815C19.7336 20.43 19.6003 20.4664 19.5639 20.4422C19.4185 20.321 19.2973 20.1755 19.164 20.03C19.2246 19.9573 19.2852 19.8967 19.3458 19.824C19.5033 19.9452 19.6609 20.0542 19.8064 20.1754C19.8306 20.2118 19.8185 20.3451 19.7821 20.3815ZM19.9275 19.0967C19.9033 19.0967 19.8791 19.036 19.8548 19.0118C19.9275 18.9876 20.0003 18.9512 20.073 18.9391C20.0973 18.9391 20.1215 18.9997 20.1458 19.0361C20.073 19.0603 20.0003 19.0845 19.9275 19.0967ZM20.3882 15.2301L12.3398 20.9875C12.3883 21.0966 12.4246 21.2057 12.4731 21.3027C12.4246 21.3633 12.4004 21.4239 12.364 21.4239C12.2913 21.4239 12.1701 21.4239 12.1459 21.3876C12.0731 21.2421 12.0368 21.0845 12.0004 20.9148C12.0004 20.9027 12.0125 20.8664 12.0368 20.8542V9.32713C12.0368 9.18167 12.2065 9.09682 12.3277 9.18167L20.4003 14.9513C20.4973 14.9998 20.4972 15.1573 20.3882 15.2301ZM20.6669 21.1936C20.6063 21.1694 20.5457 21.1209 20.4851 21.0845C20.5579 21.0603 20.6185 21.0239 20.6912 21.0118C20.7033 21.0118 20.7518 21.0724 20.7518 21.1088C20.7397 21.1452 20.6912 21.1936 20.6669 21.1936ZM21.3699 22.3936C21.3578 22.3573 21.3215 22.3209 21.3215 22.2966C21.3215 22.2603 21.3578 22.236 21.3821 22.1996C21.3942 22.236 21.4306 22.2724 21.4306 22.3088C21.4184 22.333 21.3821 22.3573 21.3699 22.3936ZM22.2669 19.1937L22.1699 19.1572L22.2669 19.1209V19.1937ZM22.4245 12.4544L22.6305 12.418C22.8366 12.418 22.5215 12.6483 22.3033 12.8422C22.3639 12.7453 22.4245 12.6241 22.4245 12.4544ZM22.6184 16.8906C22.5942 16.8906 22.5578 16.8543 22.5215 16.83C22.5578 16.8179 22.5942 16.7816 22.6184 16.7816C22.6548 16.7816 22.679 16.8179 22.7154 16.8422C22.6911 16.8543 22.6548 16.8906 22.6184 16.8906ZM22.6548 10.2362L22.6063 10.1271L22.776 9.93319L22.6548 10.2362ZM23.1275 20.9512C22.8124 20.8421 22.8366 20.5634 22.9214 20.2846C23.2002 20.3816 23.4669 20.4906 23.8063 20.6239C23.6366 21.0724 23.3699 21.0482 23.1275 20.9512ZM24.4002 15.6665C24.376 15.6665 24.3275 15.6179 24.3275 15.6058C24.3517 15.5573 24.3881 15.5088 24.4366 15.4482C24.4487 15.5088 24.4851 15.5573 24.4972 15.6179C24.4972 15.6301 24.4366 15.6665 24.4002 15.6665ZM24.9214 15.424C24.8366 15.3028 24.7396 15.1816 24.6548 15.0483C24.6548 15.0362 24.7517 14.9634 24.8366 14.8907C24.9093 14.9634 25.0305 15.0362 25.0426 15.121C25.0547 15.2059 24.9699 15.3149 24.9214 15.424ZM26.679 14.9756C26.7396 14.9392 26.8123 14.8665 26.8729 14.8665C26.9335 14.8665 26.9941 14.9392 27.0668 14.9756C27.0062 15.0119 26.9335 15.0846 26.8729 15.0725C26.8123 15.0846 26.7396 15.0119 26.679 14.9756Z" fill="white"/>
</g>
</svg>
